<svg width="18" height="20" viewBox="0 0 18 20" fill="none" xmlns="http://www.w3.org/2000/svg">
<path d="M14.5399 6.30989C15.8986 6.30989 17 5.20851 17 3.84989C17 2.49127 15.8986 1.38989 14.5399 1.38989C13.1813 1.38989 12.08 2.49127 12.08 3.84989C12.08 5.20851 13.1813 6.30989 14.5399 6.30989Z" stroke="#292D32" stroke-width="1.5" stroke-miterlimit="10" stroke-linecap="round" stroke-linejoin="round"/>
<path d="M3.46001 6.30989C4.81863 6.30989 5.92 5.20851 5.92 3.84989C5.92 2.49127 4.81863 1.38989 3.46001 1.38989C2.10139 1.38989 1 2.49127 1 3.84989C1 5.20851 2.10139 6.30989 3.46001 6.30989Z" stroke="#292D32" stroke-width="1.5" stroke-miterlimit="10" stroke-linecap="round" stroke-linejoin="round"/>
<path d="M14.5399 18.6099C15.8986 18.6099 17 17.5086 17 16.1499C17 14.7913 15.8986 13.6899 14.5399 13.6899C13.1813 13.6899 12.08 14.7913 12.08 16.1499C12.08 17.5086 13.1813 18.6099 14.5399 18.6099Z" stroke="#292D32" stroke-width="1.5" stroke-miterlimit="10" stroke-linecap="round" stroke-linejoin="round"/>
<path d="M3.46001 18.6099C4.81863 18.6099 5.92 17.5086 5.92 16.1499C5.92 14.7913 4.81863 13.6899 3.46001 13.6899C2.10139 13.6899 1 14.7913 1 16.1499C1 17.5086 2.10139 18.6099 3.46001 18.6099Z" stroke="#292D32" stroke-width="1.5" stroke-miterlimit="10" stroke-linecap="round" stroke-linejoin="round"/>
</svg>
